<svg width="3096" height="1024" xmlns="http://www.w3.org/2000/svg" class="icon">
 <defs>
  <style type="text/css"/>
 </defs>
 <g>
  <title>background</title>
  <rect fill="none" id="canvas_background" height="1026" width="3098" y="-1" x="-1"/>
 </g>
 <g>
  <title>Layer 1</title>
  <path id="svg_1" fill="#1FA8D7" d="m599.63272,434.59599c0.40644,0.47418 0.76772,1.01609 1.17416,1.53543c2.34831,3.00313 4.58373,6.02884 6.61592,9.25777c0.27096,0.4516 0.60966,0.7903 0.88062,1.19674l95.55828,-165.51091a296.24873,296.24873 0 0 0 -195.13579,-73.20415c-13.63828,0 -26.96044,1.2419 -40.10196,3.02571l125.00251,216.51899c2.1451,2.25799 4.04181,4.7192 6.00626,7.18042zm-191.02624,-209.09019a298.39383,298.39383 0 0 0 -174.81384,165.82703l270.55276,0l-95.73892,-165.82703zm337.50227,100.90972l-135.23122,234.26682l190.34884,0c3.31925,-17.86073 5.28371,-36.21822 5.28371,-55.04988c0,-67.37852 -22.64768,-129.2927 -60.40133,-179.21694zm-328.24449,250.36631l-1.26448,-1.67092a109.96428,109.96428 0 0 1 -6.57076,-9.21261c-0.27096,-0.40644 -0.58708,-0.74514 -0.85804,-1.19673l-95.55828,165.53349a296.24873,296.24873 0 0 0 195.13579,73.18157c13.63828,0 26.93786,-1.2419 40.10196,-3.00314l-125.02509,-216.54156c-2.12252,-2.23541 -4.01923,-4.67405 -5.9611,-7.0901zm-201.61623,-126.17667a300.74214,300.74214 0 0 0 -5.28371,55.04988c0,67.37852 22.64768,129.36044 60.37875,179.23951l135.23122,-234.26681l-190.32626,0l0,-0.02258zm392.59731,335.2217a298.43899,298.43899 0 0 0 174.83642,-165.8722l-270.57534,0l95.73892,165.8722z"/>
  <path id="svg_2" fill="#1FA8D7" d="m512.02258,94.9712c-229.97663,0 -417.05138,187.07475 -417.05138,417.0288s187.07475,417.0288 417.05138,417.0288c229.95405,0 417.0288,-187.07475 417.0288,-417.0288s-187.09733,-417.0288 -417.0288,-417.0288zm0,769.61447c-194.43581,0 -352.60825,-158.17244 -352.60825,-352.58567s158.14986,-352.58567 352.60825,-352.58567c194.39065,0 352.58567,158.17244 352.58567,352.58567s-158.19502,352.58567 -352.58567,352.58567z"/>
  <text stroke="#000" transform="matrix(2.5678948736813143,0,0,2.424072293108707,-1646.4029064902036,-631.4002251282602) " xml:space="preserve" text-anchor="start" font-family="Helvetica, Arial, sans-serif" font-size="250" id="svg_3" y="560.265546" x="1040.004433" stroke-width="0" fill="#000000">H</text>
  <text transform="matrix(2.5678948736813143,0,0,2.424072293108707,-1646.4029064902036,-631.4002251282602) " xml:space="preserve" text-anchor="start" font-family="Helvetica, Arial, sans-serif" font-size="250" id="svg_4" y="560.265546" x="1234.733974" stroke-width="0" fill="#1FA8D7">O</text>
  <text style="cursor: move;" stroke="#000" transform="matrix(2.5678948736813143,0,0,2.424072293108707,-1646.4029064902036,-631.4002251282602) " xml:space="preserve" text-anchor="start" font-family="Helvetica, Arial, sans-serif" font-size="250" id="svg_5" y="560.265546" x="1439.199992" stroke-width="0" fill="#000000">S</text>
  <text transform="matrix(2.5678948736813143,0,0,2.424072293108707,-1646.4029064902036,-631.4002251282602) " xml:space="preserve" text-anchor="start" font-family="Helvetica, Arial, sans-serif" font-size="250" id="svg_6" y="560.265546" x="1615.847504" stroke-width="0" fill="#1FA8D7">O</text>
 </g>
</svg>