<?xml version="1.0" standalone="no"?><!DOCTYPE svg PUBLIC "-//W3C//DTD SVG 1.1//EN" "http://www.w3.org/Graphics/SVG/1.1/DTD/svg11.dtd"><svg t="1561872798365" class="icon" viewBox="0 0 1024 1024" version="1.1" xmlns="http://www.w3.org/2000/svg" p-id="3227" xmlns:xlink="http://www.w3.org/1999/xlink" width="200" height="200"><defs><style type="text/css"></style></defs><path d="M599.632723 434.595987c0.406439 0.474179 0.767718 1.016097 1.174157 1.535435 2.348313 3.003131 4.583727 6.028842 6.61592 9.257773 0.270959 0.451599 0.609658 0.790298 0.880618 1.196737l95.55828-165.510915a296.248732 296.248732 0 0 0-195.135788-73.204146c-13.63828 0-26.960441 1.241896-40.101963 3.025711l125.002514 216.518986c2.145094 2.257993 4.041808 4.719206 6.006262 7.180419zM408.606483 225.505799a298.393826 298.393826 0 0 0-174.813848 165.827035h270.552767l-95.738919-165.827035zM746.108754 326.415524l-135.231224 234.266813h190.348843c3.31925-17.860728 5.283705-36.218214 5.283704-55.049878 0-67.378523-22.647674-129.292701-60.401323-179.216935zM417.864256 576.78183l-1.264477-1.670915a109.964278 109.964278 0 0 1-6.57076-9.212613c-0.270959-0.406439-0.587078-0.745138-0.858038-1.196736l-95.55828 165.533495a296.248732 296.248732 0 0 0 195.135789 73.181565c13.63828 0 26.937861-1.241896 40.101962-3.003131l-125.025094-216.541566c-2.122514-2.235413-4.019228-4.674046-5.961102-7.090099zM216.248026 450.60516a300.742139 300.742139 0 0 0-5.283704 55.049879c0 67.378523 22.647674 129.360441 60.378743 179.239514l135.231224-234.266813H216.248026zM608.845336 785.826858a298.438986 298.438986 0 0 0 174.836428-165.872194H513.106417l95.738919 165.872194z" p-id="3228" fill="#1FA8D7"></path><path d="M512.02258 94.971202c-229.976626 0-417.051378 187.074752-417.051378 417.028798s187.074752 417.028798 417.051378 417.028798c229.954046 0 417.028798-187.074752 417.028798-417.028798S741.954046 94.971202 512.02258 94.971202z m0 769.614465c-194.43581 0-352.608247-158.172437-352.608247-352.585667S317.56419 159.414333 512.02258 159.414333c194.39065 0 352.585667 158.172437 352.585667 352.585667S706.41323 864.585667 512.02258 864.585667z" p-id="3229" fill="#1FA8D7"></path></svg>